<!-- Generated by IcoMoon.io -->
<svg version="1.1" xmlns="http://www.w3.org/2000/svg" width="1024" height="1024" viewBox="0 0 1024 1024">
<title></title>
<g id="icomoon-ignore">
</g>
<path fill="#da4648" d="M646.656 829.099l27.136-46.251c0 0-61.611 25.216-164.693 25.216-103.168 0-163.84-24.235-163.84-24.235l30.336 50.475 10.752 159.104c0 17.195 56.064 30.635 125.269 30.635 69.248 0 125.355-13.397 125.355-30.635l9.771-163.627zM672.896 528.469c-32.811 1.963-49.195 38.528-65.664 77.013-6.101 14.080-26.88 74.112-40.448 66.688-13.568-7.381 17.621-56.704 26.411-86.059-10.112 7.424-47.147 36.224-56.704 9.173-15.275 13.397-48.171 20.48-44.459-14.037-8.149 14.72-26.496 35.115-48.597 26.197-28.715-10.88 16.853-102.869 28.16-98.432 11.349 5.163-2.261 25.6-5.803 33.877-7.936 17.877-16.981 40.875-10.88 45.355 10.24 8.277 38.571-29.995 39.211-30.677 5.291-7.040 20.437-52.437 32.555-47.232 12.16 5.717-30.336 65.749-14.507 77.909 3.243 2.56 16.341-1.28 24.277-10.197 5.12-5.12 3.328-17.92 20.437-58.795 17.237-40.917 32.597-91.989 44.331-88.149s2.091 29.995-2.176 40.235c-19.797 45.995-54.101 121.344-37.973 115.627 15.957-5.76 24.277-5.76 40.235-24.277s14.72-49.152 25.557-48.512c10.24 0.597 8.96 10.837 6.4 17.835 10.24-11.52 49.152-37.035 58.155-12.117 10.837 29.355-55.637 72.192-38.997 69.632 16-1.92 42.155-18.517 53.675-33.835l30.677-277.333c0 0-31.317 25.6-228.736 25.6s-225.451-24.917-225.451-24.917l26.155 253.013c14.080-39.595 47.275-120.064 99.072-116.907 23.637 1.28 55.595 47.317 28.075 48.597-11.52 0.64-12.8-22.997-26.197-26.197-10.197-1.963-23.637 5.76-32.555 14.72-17.237 17.237-55.637 85.589-50.517 119.509 6.4 43.435 60.032-14.763 68.992-32 6.357-12.075 10.837-48.555 24.235-44.715 14.080 3.84-1.237 41.557-11.52 74.112-11.52 37.077-17.237 75.989-31.232 71.509-14.080-4.437 8.917-52.352 7.595-60.672-13.355 12.757-37.675 43.52-69.589 28.117l15.957 157.824c0 0 43.477 33.835 173.781 33.835s175.701-33.835 175.701-33.835l20.437-182.741c-16.597 16.64-68.992 45.355-72.192 12.8-2.517-26.197 56.875-63.915 41.557-64.597zM740.096 28.544l-113.451 119.467-20.736 81.109c80.256 5.12 136.064 16.469 136.064 29.611 0 17.877-102.997 32.299-230.016 32.299s-229.973-14.635-229.973-32.555c0-17.877 102.997-32.597 230.016-32.597 18.048 0 36.011 0 53.931 0.683l23.936-97.109 120.533-127.787c2.901-3.84 11.947-0.64 20.224 6.4 8.277 6.357 12.757 14.677 10.197 18.517v1.28zM576.512 275.797c0 0-22.315 0-26.027-3.413-0.939-1.067-1.536-2.475-1.536-3.84 0-2.475 1.664-3.883 3.84-4.693l1.877 3.2c-0.896 0.256-1.237 0.64-1.408 0.981 0 1.749 13.397 2.944 23.68 2.816 10.197-0.128 22.656-0.981 22.741-2.731 0-0.512-0.981-0.981-2.603-1.408l1.92-3.072c2.688 0.853 4.992 2.475 4.992 5.163 0 4.693-6.016 5.461-9.813 6.016-4.565 0.64-17.579 0.981-17.579 0.981z"></path>
</svg>
