<!-- Generated by IcoMoon.io -->
<svg version="1.1" xmlns="http://www.w3.org/2000/svg" width="1024" height="1024" viewBox="0 0 1024 1024">
<title></title>
<g id="icomoon-ignore">
</g>
<path fill="#f24e1e" d="M512 512c0-94.257 76.41-170.667 170.667-170.667s170.667 76.41 170.667 170.667v0c0 94.257-76.41 170.667-170.667 170.667s-170.667-76.41-170.667-170.667v0zM170.667 853.333c0-94.257 76.41-170.667 170.667-170.667v0h170.667v170.667c0 94.257-76.41 170.667-170.667 170.667s-170.667-76.41-170.667-170.667v0zM512 0v341.333h170.667c94.257 0 170.667-76.41 170.667-170.667s-76.41-170.667-170.667-170.667v0zM170.667 170.667c0 94.257 76.41 170.667 170.667 170.667v0h170.667v-341.333h-170.667c-94.257 0-170.667 76.41-170.667 170.667v0zM170.667 512c0 94.257 76.41 170.667 170.667 170.667v0h170.667v-341.333h-170.667c-94.257 0-170.667 76.41-170.667 170.667v0z"></path>
</svg>
